<svg width="30" height="35" viewBox="0 0 30 35" fill="none" xmlns="http://www.w3.org/2000/svg">
<path d="M9.15302 8.85285C10.1118 8.85287 11.2688 9.04699 12.6239 9.43521C13.9918 9.82347 14.8994 10.0176 15.3469 10.0176C15.9222 10.0176 16.8618 9.79842 18.1658 9.36007C19.4698 8.92176 20.6011 8.70259 21.56 8.70256C23.1324 8.70259 24.5323 9.11588 25.7595 9.94243C26.4499 10.4184 27.1338 11.0633 27.8114 11.8774C26.7886 12.729 26.0408 13.4867 25.5678 14.1504C24.7112 15.3528 24.283 16.6803 24.283 18.133C24.283 19.7236 24.7368 21.1576 25.6445 22.435C26.5521 23.7124 27.5876 24.5202 28.751 24.8583C28.2652 26.3988 27.4598 28.0081 26.3348 29.6863C24.6345 32.2036 22.947 33.4622 21.2723 33.4622C20.6075 33.4622 19.6871 33.2556 18.511 32.8423C17.3476 32.429 16.3632 32.2224 15.5578 32.2224C14.7524 32.2224 13.8128 32.4353 12.739 32.8611C11.6779 33.2994 10.8149 33.5186 10.1502 33.5186C8.14306 33.5186 6.17432 31.8529 4.24393 28.5216C2.31352 25.2278 1.34832 21.9967 1.34833 18.8281C1.34832 15.885 2.08341 13.4867 3.55358 11.6331C5.03653 9.77964 6.90301 8.85287 9.15302 8.85285ZM21.234 1.45125C21.2851 1.61409 21.3171 1.75812 21.3299 1.88333C21.3426 2.00859 21.349 2.13383 21.349 2.25904C21.349 3.0606 21.1573 3.93726 20.7738 4.88905C20.3902 5.84089 19.783 6.72382 18.952 7.53785C18.2361 8.22668 17.5266 8.69006 16.8235 8.92799C16.376 9.06578 15.6985 9.17223 14.7908 9.24735C14.8164 7.34375 15.3213 5.69687 16.3057 4.30669C17.3029 2.91657 18.9456 1.96476 21.234 1.45125Z" stroke="white" stroke-width="1.2"/>
</svg>
