<svg width="30" height="30" viewBox="0 0 30 30" fill="none" xmlns="http://www.w3.org/2000/svg">
<path d="M15 18.6514C17.1087 18.6514 18.8182 16.9439 18.8182 14.8376C18.8182 12.7314 17.1087 11.0239 15 11.0239C12.8913 11.0239 11.1818 12.7314 11.1818 14.8376C11.1818 16.9439 12.8913 18.6514 15 18.6514Z" stroke="white" stroke-width="1.2" stroke-linecap="round" stroke-linejoin="round"/>
<path d="M24.4182 18.6512C24.2488 19.0346 24.1982 19.46 24.2731 19.8723C24.3479 20.2847 24.5448 20.6652 24.8382 20.9648L24.9145 21.0411C25.1512 21.2772 25.339 21.5576 25.4671 21.8662C25.5952 22.1749 25.6611 22.5057 25.6611 22.8398C25.6611 23.1739 25.5952 23.5048 25.4671 23.8134C25.339 24.1221 25.1512 24.4024 24.9145 24.6386C24.6781 24.8749 24.3974 25.0625 24.0884 25.1904C23.7794 25.3184 23.4481 25.3842 23.1136 25.3842C22.7791 25.3842 22.4479 25.3184 22.1389 25.1904C21.8299 25.0625 21.5491 24.8749 21.3127 24.6386L21.2364 24.5623C20.9364 24.2692 20.5554 24.0726 20.1426 23.9979C19.7297 23.9231 19.3039 23.9736 18.92 24.1428C18.5436 24.3039 18.2225 24.5715 17.9964 24.9126C17.7703 25.2536 17.6489 25.6533 17.6473 26.0623V26.2784C17.6473 26.9527 17.3791 27.5994 16.9017 28.0762C16.4244 28.5529 15.7769 28.8208 15.1018 28.8208C14.4267 28.8208 13.7793 28.5529 13.3019 28.0762C12.8245 27.5994 12.5564 26.9527 12.5564 26.2784V26.164C12.5465 25.7432 12.4102 25.3352 12.165 24.9929C11.9199 24.6505 11.5773 24.3898 11.1818 24.2445C10.7979 24.0753 10.3721 24.0248 9.95925 24.0996C9.54638 24.1743 9.16541 24.3709 8.86545 24.664L8.78909 24.7403C8.55269 24.9766 8.27195 25.1642 7.96294 25.2921C7.65393 25.4201 7.32269 25.4859 6.98818 25.4859C6.65367 25.4859 6.32244 25.4201 6.01342 25.2921C5.70441 25.1642 5.42368 24.9766 5.18727 24.7403C4.95061 24.5041 4.76286 24.2237 4.63476 23.9151C4.50666 23.6065 4.44072 23.2756 4.44072 22.9415C4.44072 22.6074 4.50666 22.2766 4.63476 21.9679C4.76286 21.6593 4.95061 21.3789 5.18727 21.1428L5.26364 21.0665C5.55705 20.7669 5.75387 20.3864 5.82873 19.974C5.90359 19.5617 5.85306 19.1363 5.68364 18.7529C5.5223 18.3769 5.25442 18.0563 4.91296 17.8304C4.5715 17.6046 4.17136 17.4834 3.76182 17.4817H3.54545C2.87036 17.4817 2.22291 17.2139 1.74555 16.7371C1.26818 16.2603 1 15.6136 1 14.9393C1 14.2651 1.26818 13.6184 1.74555 13.1416C2.22291 12.6648 2.87036 12.397 3.54545 12.397H3.66C4.08127 12.3871 4.48982 12.2509 4.83256 12.0061C5.1753 11.7612 5.43637 11.4191 5.58182 11.0241C5.75124 10.6406 5.80178 10.2153 5.72691 9.80296C5.65205 9.39059 5.45523 9.01008 5.16182 8.71048L5.08545 8.63421C4.84879 8.39809 4.66104 8.11769 4.53294 7.80905C4.40484 7.50041 4.33891 7.16958 4.33891 6.83547C4.33891 6.50136 4.40484 6.17053 4.53294 5.86188C4.66104 5.55324 4.84879 5.27285 5.08545 5.03673C5.32186 4.80034 5.60259 4.61282 5.91161 4.48488C6.22062 4.35693 6.55185 4.29108 6.88636 4.29108C7.22088 4.29108 7.55211 4.35693 7.86112 4.48488C8.17013 4.61282 8.45087 4.80034 8.68727 5.03673L8.76364 5.113C9.06359 5.40606 9.44457 5.60264 9.85743 5.67742C10.2703 5.75219 10.6961 5.70171 11.08 5.53249H11.1818C11.5583 5.37135 11.8793 5.10379 12.1054 4.76274C12.3316 4.42169 12.4529 4.02204 12.4545 3.61299V3.39688C12.4545 2.7226 12.7227 2.07593 13.2001 1.59914C13.6775 1.12235 14.3249 0.854492 15 0.854492C15.6751 0.854492 16.3225 1.12235 16.7999 1.59914C17.2773 2.07593 17.5455 2.7226 17.5455 3.39688V3.51129C17.5471 3.92035 17.6684 4.32 17.8946 4.66104C18.1207 5.00209 18.4417 5.26966 18.8182 5.4308C19.2021 5.60001 19.6279 5.65049 20.0407 5.57572C20.4536 5.50095 20.8346 5.30436 21.1345 5.0113L21.2109 4.93503C21.4473 4.69865 21.728 4.51112 22.0371 4.38318C22.3461 4.25524 22.6773 4.18938 23.0118 4.18938C23.3463 4.18938 23.6776 4.25524 23.9866 4.38318C24.2956 4.51112 24.5763 4.69865 24.8127 4.93503C25.0494 5.17115 25.2371 5.45155 25.3652 5.76019C25.4933 6.06883 25.5593 6.39966 25.5593 6.73377C25.5593 7.06788 25.4933 7.39872 25.3652 7.70736C25.2371 8.016 25.0494 8.2964 24.8127 8.53252L24.7364 8.60879C24.443 8.90838 24.2461 9.2889 24.1713 9.70127C24.0964 10.1136 24.1469 10.539 24.3164 10.9224V11.0241C24.4777 11.4 24.7456 11.7207 25.087 11.9466C25.4285 12.1724 25.8286 12.2936 26.2382 12.2953H26.4545C27.1296 12.2953 27.7771 12.5631 28.2545 13.0399C28.7318 13.5167 29 14.1634 29 14.8376C29 15.5119 28.7318 16.1586 28.2545 16.6354C27.7771 17.1122 27.1296 17.38 26.4545 17.38H26.34C25.9305 17.3817 25.5303 17.5029 25.1889 17.7287C24.8474 17.9546 24.5795 18.2753 24.4182 18.6512V18.6512Z" stroke="white" stroke-width="1.2" stroke-linecap="round" stroke-linejoin="round"/>
</svg>
