<svg width="27" height="36" viewBox="0 0 27 36" fill="none" xmlns="http://www.w3.org/2000/svg">
<path d="M0.68787 0.361689C0.665597 0.361383 0.643324 0.362333 0.621137 0.364534C0.453624 0.374719 0.295968 0.455525 0.180483 0.590391C0.0649971 0.725257 0.000427561 0.903969 7.42508e-06 1.0899V34.5876C-0.000548073 34.7171 0.030075 34.8445 0.0887199 34.9565C0.147365 35.0685 0.23191 35.1612 0.333638 35.225C0.435367 35.2887 0.550599 35.3213 0.667456 35.3192C0.784312 35.3172 0.898565 35.2807 0.998435 35.2134L3.54712 33.5038C3.59857 33.4785 3.64688 33.446 3.69085 33.4071L25.9668 18.4646C26.0641 18.3998 26.1446 18.3083 26.2005 18.1989C26.2563 18.0895 26.2857 17.9659 26.2857 17.8402C26.2857 17.7144 26.2563 17.5909 26.2005 17.4814C26.1446 17.372 26.0641 17.2805 25.9668 17.2158L3.70112 2.28178C3.69687 2.27888 3.69259 2.27603 3.68829 2.27324C3.64158 2.23046 3.58976 2.19504 3.53429 2.16799L0.998435 0.466938C0.90449 0.403611 0.797707 0.367423 0.68787 0.361689ZM1.31413 2.38134L2.85413 3.41392L13.5673 17.8444L2.86696 32.255L1.31413 33.2962V2.38134ZM6.24467 5.68957L17.1555 13.0087L14.4169 16.6981L6.24467 5.68957ZM18.2925 13.771L24.3524 17.8387L18.2874 21.9093L15.269 17.8444L18.2925 13.771ZM14.4169 18.9908L17.1504 22.6717L6.26007 29.9794L14.4169 18.9908Z" fill="white"/>
</svg>
