<svg width="32" height="28" viewBox="0 0 32 28" fill="none" xmlns="http://www.w3.org/2000/svg">
<path d="M28.3293 3.0812C27.6057 2.35337 26.7466 1.776 25.8011 1.38207C24.8555 0.988153 23.842 0.7854 22.8185 0.7854C21.795 0.7854 20.7815 0.988153 19.8359 1.38207C18.8903 1.776 18.0312 2.35337 17.3077 3.0812L15.806 4.59102L14.3043 3.0812C12.8428 1.61171 10.8605 0.786162 8.79349 0.786162C6.72653 0.786162 4.74422 1.61171 3.28266 3.0812C1.8211 4.5507 1 6.54375 1 8.62193C1 10.7001 1.8211 12.6932 3.28266 14.1627L4.78433 15.6725L15.806 26.7539L26.8276 15.6725L28.3293 14.1627C29.0532 13.4352 29.6275 12.5714 30.0193 11.6207C30.4111 10.67 30.6127 9.651 30.6127 8.62193C30.6127 7.59285 30.4111 6.57386 30.0193 5.62316C29.6275 4.67247 29.0532 3.8087 28.3293 3.0812V3.0812Z" stroke="white" stroke-width="1.2" stroke-linecap="round" stroke-linejoin="round"/>
</svg>
