<svg width="50" height="61" viewBox="0 0 50 61" fill="none" xmlns="http://www.w3.org/2000/svg">
<path d="M1.38602e-05 1.90422V59.3291L1.28402 0.655858M1.38602e-05 1.90422L0.750012 1.90607C0.750012 1.90582 0.750013 1.90558 0.750014 1.90533M1.38602e-05 1.90422H0.750014V1.90533M1.38602e-05 1.90422C0.000798113 1.58548 0.121328 1.27912 0.336901 1.04792C0.552474 0.81672 0.846765 0.678194 1.15946 0.660734C1.20087 0.656961 1.24245 0.655333 1.28402 0.655858M0.750014 1.90533V59.3291V59.3326C0.74958 59.4238 0.773114 59.5127 0.817204 59.5901C0.861245 59.6674 0.923756 59.7296 0.996947 59.7717C1.07005 59.8138 1.1518 59.8348 1.23392 59.8334C1.31605 59.8321 1.39723 59.8086 1.46917 59.7641L1.47038 59.7633L6.22793 56.8326L6.26889 56.8074L6.31273 56.7876C6.34955 56.7709 6.38446 56.7494 6.41654 56.7234L6.45453 56.6925L6.49622 56.6668L48.0781 31.0509L48.0803 31.0495C48.1505 31.0066 48.2101 30.9451 48.252 30.8696C48.2941 30.7939 48.3167 30.7076 48.3167 30.6191C48.3167 30.5306 48.2941 30.4442 48.252 30.3686C48.2101 30.2931 48.1505 30.2315 48.0803 30.1887L48.0781 30.1873L6.51542 4.58603L6.51053 4.58302L6.51054 4.583L6.5013 4.57735L6.44877 4.5461L6.402 4.50675C6.36791 4.47808 6.33046 4.45465 6.29081 4.43689L6.24588 4.41677L6.20396 4.39095L1.47037 1.47484L1.46897 1.47398L1.46897 1.47398C1.40515 1.43447 1.334 1.41143 1.26133 1.40582M0.750014 1.90533C0.75052 1.77432 0.80025 1.65076 0.885445 1.55939C0.970434 1.46824 1.08379 1.41613 1.20127 1.40957L1.21441 1.40883L1.22751 1.40764C1.23876 1.40662 1.25004 1.40601 1.26133 1.40582M1.26133 1.40582C1.26574 1.40575 1.27015 1.40574 1.27456 1.4058L1.28402 0.655858M1.26133 1.40582C1.25693 1.40548 1.25252 1.40521 1.24811 1.405L1.28402 0.655858" stroke="white" stroke-width="1.5"/>
</svg>
