<svg width="28" height="30" viewBox="0 0 28 30" fill="none" xmlns="http://www.w3.org/2000/svg">
<path d="M7.49996 28.7549H3.59998C2.91042 28.7549 2.24911 28.4603 1.76152 27.9358C1.27393 27.4114 1 26.7001 1 25.9584V16.1703C1 15.4286 1.27393 14.7173 1.76152 14.1928C2.24911 13.6684 2.91042 13.3737 3.59998 13.3737H7.49996M16.5999 10.5771V4.98395C16.5999 3.87139 16.189 2.80441 15.4576 2.01772C14.7262 1.23102 13.7343 0.789063 12.6999 0.789062L7.49996 13.3737V28.7549H22.1639C22.7909 28.7626 23.3993 28.5262 23.8771 28.0894C24.3549 27.6525 24.6698 27.0447 24.7638 26.3778L26.5578 13.7932C26.6144 13.3924 26.5893 12.9831 26.4842 12.5938C26.3791 12.2045 26.1966 11.8444 25.9493 11.5385C25.7019 11.2326 25.3957 10.9881 25.0519 10.8221C24.708 10.6561 24.3347 10.5725 23.9579 10.5771H16.5999Z" stroke="white" stroke-width="1.2" stroke-linecap="round" stroke-linejoin="round"/>
</svg>
